<svg width="226" height="138" viewBox="0 0 226 138" fill="none" xmlns="http://www.w3.org/2000/svg">
<g clip-path="url(#clip0_5_18)">
<path d="M101.37 83.6513C97.4448 79.0418 86.3062 63.0967 88.6264 56.9017C87.1028 57.9479 83.6074 58.9146 78.9177 59.7717C81.8176 67.3972 88.8724 83.4886 93.8928 86.8493C97.4983 85.0702 100.15 83.8988 101.37 83.6513Z" fill="#EA6A63"/>
<path d="M27.2049 63.7233C29.2169 64.4769 31.0959 65.8152 32.8232 67.5834C36.5058 71.353 39.4991 77.0763 41.6233 83.2515L48.5484 84.2754L43.2105 88.5553C46.0909 99.7807 46.0608 111.095 42.1086 114.044C57.5435 106.43 81.4214 93.0035 93.8928 86.8493C88.8724 83.4886 81.8176 67.3972 78.9177 59.7717C65.394 62.2432 41.9393 63.8024 27.2049 63.7233Z" fill="#FFFADE"/>
<path d="M137.908 25.9111C130.942 31.936 96.0227 51.823 88.6264 56.9017C86.3062 63.0967 97.4448 79.0418 101.37 83.6513C106.806 82.5479 149.743 75.3439 164.854 71.323C160.002 57.7325 143.481 21.0912 137.908 25.9111Z" fill="#FFFADE"/>
<path d="M27.2049 63.7233C23.4925 73.6353 36.0253 104.44 42.1086 114.044C46.0608 111.095 46.0909 99.7807 43.2105 88.5553L48.5484 84.2754L41.6233 83.2515C39.4991 77.0763 36.5058 71.353 32.8232 67.5834C31.0959 65.8152 29.2169 64.4769 27.2049 63.7233Z" fill="#F7EAA0"/>
<path d="M27.2049 63.7233C23.4925 73.6353 36.0253 104.44 42.1086 114.044M27.2049 63.7233C29.2169 64.4769 31.0959 65.8152 32.8232 67.5834M27.2049 63.7233C41.9393 63.8024 65.394 62.2432 78.9177 59.7717M42.1086 114.044C57.5435 106.43 81.4214 93.0035 93.8928 86.8493M42.1086 114.044C46.0608 111.095 46.0909 99.7807 43.2105 88.5553L48.5484 84.2754L41.6233 83.2515C39.4991 77.0763 36.5058 71.353 32.8232 67.5834M88.6264 56.9017C96.0227 51.823 130.942 31.936 137.908 25.9111C143.481 21.0912 160.002 57.7325 164.854 71.323C149.743 75.3439 106.806 82.5479 101.37 83.6513M88.6264 56.9017C86.3062 63.0967 97.4448 79.0418 101.37 83.6513M88.6264 56.9017C87.1028 57.9479 83.6074 58.9146 78.9177 59.7717M88.6264 56.9017L78.9177 59.7717M101.37 83.6513C100.15 83.8988 97.4983 85.0702 93.8928 86.8493M32.8232 67.5834C34.2661 80.496 36.3729 99.1805 44.4288 107.849M78.9177 59.7717C81.8176 67.3972 88.8724 83.4886 93.8928 86.8493" stroke="#533B3B"/>
<path d="M214.447 2.14207L207.909 7.12053L214.604 18.6672L223.212 15.1666L214.447 2.14207Z" fill="#BC9C6B"/>
<path fill-rule="evenodd" clip-rule="evenodd" d="M119.668 6.88675C121.141 6.44336 122.506 6.09439 123.753 5.84843C141.978 2.2513 156.007 13.7028 164.842 26.8991L205.442 2.86647L207.909 7.12053L214.604 18.6672L217.424 23.529L171.314 38.7694C175.616 44.8394 182.596 67.1439 170.875 84.0765C165.301 92.1296 136.475 106.495 104.085 118.243L119.668 6.88675ZM98.7645 15.6092C68.7072 30.3154 25.9803 57.3832 3.39494 72.5129L33.3104 136.511C48.0959 134.98 66.3527 130.568 84.7046 124.805L98.7645 15.6092Z" fill="#DCF3F4" fill-opacity="0.8"/>
<path d="M98.7645 15.6092L84.7046 124.805C91.2026 122.764 97.7126 120.554 104.085 118.243L119.668 6.88675C114.05 8.57842 106.868 11.6446 98.7645 15.6092Z" fill="#F7FDFD" fill-opacity="0.8"/>
<path d="M207.909 7.12053L205.442 2.86647L164.842 26.8991C156.007 13.7028 141.978 2.2513 123.753 5.84843C122.506 6.09439 121.141 6.44336 119.668 6.88675M207.909 7.12053L214.447 2.14207L223.212 15.1666L214.604 18.6672M207.909 7.12053L214.604 18.6672M214.604 18.6672L217.424 23.529L171.314 38.7694C175.616 44.8394 182.596 67.1439 170.875 84.0765C165.301 92.1296 136.475 106.495 104.085 118.243M98.7645 15.6092C68.7072 30.3154 25.9803 57.3832 3.39494 72.5129L33.3104 136.511C48.0959 134.98 66.3527 130.568 84.7046 124.805M98.7645 15.6092L84.7046 124.805M98.7645 15.6092C106.868 11.6446 114.05 8.57842 119.668 6.88675M84.7046 124.805C91.2026 122.764 97.7126 120.554 104.085 118.243M104.085 118.243L119.668 6.88675" stroke="#533B3B"/>
</g>
<defs>
<clipPath id="clip0_5_18">
<rect width="226" height="138" fill="white"/>
</clipPath>
</defs>
</svg>
