<svg width="176" height="110" viewBox="0 0 176 110" fill="none" xmlns="http://www.w3.org/2000/svg">
<path d="M78.4701 66.5828C75.3828 62.9569 66.621 50.4145 68.4461 45.5414C67.2477 46.3643 64.4981 47.1248 60.8092 47.7989C63.0903 53.7973 68.6397 66.4548 72.5888 69.0984C75.4249 67.6988 77.5111 66.7774 78.4701 66.5828Z" fill="#EA6A63"/>
<path d="M20.1315 50.9075C21.7142 51.5003 23.1922 52.553 24.551 53.9438C27.4477 56.9091 29.8023 61.411 31.4733 66.2685L36.9206 67.0738L32.7218 70.4404C34.9875 79.2704 34.9639 88.1699 31.8551 90.4899C43.9963 84.5005 62.7787 73.9393 72.5888 69.0984C68.6397 66.4548 63.0903 53.7973 60.8092 47.7989C50.1713 49.7431 31.7218 50.9697 20.1315 50.9075Z" fill="#FFFADE"/>
<path d="M107.211 21.1638C101.732 25.903 74.2641 41.5464 68.4461 45.5414C66.621 50.4145 75.3828 62.9569 78.4701 66.5828C82.7465 65.7148 116.521 60.048 128.407 56.885C124.59 46.1947 111.595 17.3724 107.211 21.1638Z" fill="#FFFADE"/>
<path d="M20.1315 50.9075C17.2114 58.7044 27.0699 82.9354 31.8551 90.4899C34.9639 88.1699 34.9875 79.2704 32.7218 70.4404L36.9206 67.0738L31.4733 66.2685C29.8023 61.411 27.4477 56.9091 24.551 53.9438C23.1922 52.553 21.7142 51.5003 20.1315 50.9075Z" fill="#F7EAA0"/>
<path d="M20.1315 50.9075C17.2114 58.7044 27.0699 82.9354 31.8551 90.4899M20.1315 50.9075C21.7142 51.5003 23.1922 52.553 24.551 53.9438M20.1315 50.9075C31.7218 50.9697 50.1713 49.7431 60.8092 47.7989M31.8551 90.4899C43.9963 84.5005 62.7787 73.9393 72.5888 69.0984M31.8551 90.4899C34.9639 88.1699 34.9875 79.2704 32.7218 70.4404L36.9206 67.0738L31.4733 66.2685C29.8023 61.411 27.4477 56.9091 24.551 53.9438M68.4461 45.5414C74.2641 41.5464 101.732 25.903 107.211 21.1638C111.595 17.3724 124.59 46.1947 128.407 56.885C116.521 60.048 82.7465 65.7148 78.4701 66.5828M68.4461 45.5414C66.621 50.4145 75.3828 62.9569 78.4701 66.5828M68.4461 45.5414C67.2477 46.3643 64.4981 47.1248 60.8092 47.7989M68.4461 45.5414L60.8092 47.7989M78.4701 66.5828C77.5111 66.7774 75.4249 67.6988 72.5888 69.0984M24.551 53.9438C25.686 64.101 27.3433 78.7983 33.6801 85.6169M60.8092 47.7989C63.0903 53.7973 68.6397 66.4548 72.5888 69.0984" stroke="black"/>
<path d="M167.417 2.46668L162.274 6.38279L167.541 15.4655L174.312 12.7118L167.417 2.46668Z" fill="#BC9C6B"/>
<path fill-rule="evenodd" clip-rule="evenodd" d="M92.8638 6.19918C94.0222 5.8504 95.0961 5.5759 96.0764 5.38242C110.413 2.55283 121.448 11.5606 128.398 21.9408L160.334 3.03653L162.274 6.38279L167.541 15.4655L169.759 19.2898L133.488 31.2781C136.873 36.0528 142.363 53.5977 133.144 66.917C128.759 73.2516 106.085 84.5519 80.6058 93.7931L92.8638 6.19918ZM76.4207 13.0604C52.7775 24.6285 19.1683 45.9203 1.40252 57.8215L24.9344 108.163C36.5648 106.959 50.9257 103.488 65.3614 98.9544L76.4207 13.0604Z" fill="#DCF3F4" fill-opacity="0.8"/>
<path d="M76.4207 13.0604L65.3614 98.9544C70.4728 97.3493 75.5936 95.611 80.6058 93.7931L92.8638 6.19918C88.4442 7.52988 82.7946 9.94179 76.4207 13.0604Z" fill="#F7FDFD" fill-opacity="0.8"/>
<path d="M162.274 6.38279L160.334 3.03653L128.398 21.9408C121.448 11.5606 110.413 2.55283 96.0764 5.38242C95.0961 5.5759 94.0222 5.8504 92.8638 6.19918M162.274 6.38279L167.417 2.46668L174.312 12.7118L167.541 15.4655M162.274 6.38279L167.541 15.4655M167.541 15.4655L169.759 19.2898L133.488 31.2781C136.873 36.0528 142.363 53.5977 133.144 66.917C128.759 73.2516 106.085 84.5519 80.6058 93.7931M76.4207 13.0604C52.7775 24.6285 19.1683 45.9203 1.40252 57.8215L24.9344 108.163C36.5648 106.959 50.9257 103.488 65.3614 98.9544M76.4207 13.0604L65.3614 98.9544M76.4207 13.0604C82.7946 9.94179 88.4442 7.52988 92.8638 6.19918M65.3614 98.9544C70.4728 97.3493 75.5936 95.611 80.6058 93.7931M80.6058 93.7931L92.8638 6.19918" stroke="black"/>
</svg>
