<svg width="57" height="58" viewBox="0 0 57 58" fill="none" xmlns="http://www.w3.org/2000/svg">
<path d="M25.2 32.305L22.715 18.795V16.835L28.7 14.49H30.905L28.84 32.305H25.2ZM27.615 35.14C28.6183 35.14 29.435 35.4667 30.065 36.12C30.7183 36.7733 31.045 37.5783 31.045 38.535C31.045 39.2117 30.8117 39.8417 30.345 40.425C29.8783 41.0083 29.295 41.475 28.595 41.825C27.895 42.175 27.2183 42.35 26.565 42.35C25.585 42.35 24.7683 42.035 24.115 41.405C23.485 40.7517 23.17 39.9467 23.17 38.99C23.17 38.3133 23.4033 37.6833 23.87 37.1C24.3367 36.4933 24.9083 36.015 25.585 35.665C26.285 35.315 26.9617 35.14 27.615 35.14Z" fill="#533B3B"/>
<circle cx="28.0698" cy="29" r="26.5698" stroke="#533B3B" stroke-width="3"/>
</svg>
