<svg width="176" height="110" viewBox="0 0 176 110" fill="none" xmlns="http://www.w3.org/2000/svg">
<path d="M125.088 73.5026C104.469 70.7849 61.2072 46.3127 58.7069 22.6907C59.2761 21.8685 61.0786 21.9 59.8452 21.0463C59.5205 20.9053 58.2007 19.908 55.5445 21.1098C53.9146 21.8472 48.999 25.2952 42.074 30.0287C39.9821 31.4586 39.4602 32.1957 39.6395 34.4246C41.349 55.6749 85.7816 84.6058 101.024 85.4266C102.671 85.5153 104.429 86.3644 105.451 86.0587C114.579 82.242 127.555 76.7911 128.819 74.2612C130.084 71.7313 128.598 71.0673 127.333 72.0161L125.088 73.5026Z" fill="#D33E3E"/>
</svg>
