<svg width="85" height="33" viewBox="0 0 85 33" fill="none" xmlns="http://www.w3.org/2000/svg">
<path d="M2.48276 2.79931C2.58874 2.64034 2.84838 2.43425 3.35035 2.2174C3.83767 2.00687 4.49121 1.81222 5.30071 1.63653C6.91802 1.28552 9.09199 1.0239 11.657 0.840954C16.7828 0.475365 23.4057 0.428161 30.1176 0.584252C36.8274 0.740294 43.6146 1.09921 49.0651 1.54369C51.7908 1.76596 54.1781 2.0093 56.0525 2.25877C57.9451 2.51067 59.2671 2.76323 59.8958 2.99186C61.2277 3.47619 63.3823 4.5818 65.8925 5.98938C68.3925 7.39124 71.2146 9.07508 73.8683 10.6985C76.5215 12.3216 79.0034 13.8825 80.8221 15.0378C81.7314 15.6154 82.4748 16.0914 82.9908 16.4231C83.0328 16.4501 83.0734 16.4761 83.1124 16.5012L82.9265 16.61L80.5565 17.9967C78.58 19.1529 75.9082 20.7153 73.127 22.3403C67.5631 25.5911 61.566 29.0894 59.8187 30.0878C59.676 30.1694 59.3393 30.2802 58.7637 30.4006C58.208 30.5168 57.4831 30.6318 56.6087 30.7437C54.861 30.9675 52.5439 31.1757 49.8453 31.359C44.4498 31.7254 37.5528 31.9908 30.6849 32.0844C23.8158 32.1781 16.9858 32.0999 11.722 31.7806C9.08817 31.6209 6.85965 31.4016 5.21879 31.1162C4.397 30.9733 3.7385 30.8165 3.25609 30.6485C3.01507 30.5646 2.82958 30.4818 2.69416 30.4032C2.55472 30.3222 2.49458 30.2607 2.47359 30.2313C2.21305 29.8666 1.95044 29.2398 1.70772 28.3649C1.46816 27.5013 1.25897 26.4377 1.08506 25.2319C0.737341 22.8211 0.535293 19.875 0.504217 16.8918C0.47314 13.9084 0.613204 10.9016 0.94531 8.36827C1.28118 5.80624 1.80343 3.81833 2.48276 2.79931Z" fill="#C896CA" stroke="#FDF7EB"/>
</svg>
