<svg width="638" height="507" viewBox="0 0 638 507" fill="none" xmlns="http://www.w3.org/2000/svg">
<g opacity="0.5">
<path d="M362.96 259.95L363.635 261.125L359.035 263.95C358.301 264.167 357.593 264.308 356.91 264.375C356.243 264.458 355.526 264.5 354.76 264.5C352.876 264.5 351.21 264.075 349.76 263.225C348.31 262.375 347.185 261.208 346.385 259.725C345.585 258.225 345.185 256.525 345.185 254.625C345.185 252.675 345.785 250.875 346.985 249.225C348.185 247.558 349.676 246.25 351.46 245.3C353.26 244.333 354.968 243.85 356.585 243.85C357.551 243.85 358.676 243.975 359.96 244.225C361.26 244.475 362.21 244.742 362.81 245.025V250.1H361.585C359.935 247.433 357.785 246.1 355.135 246.1C353.968 246.1 352.901 246.417 351.935 247.05C350.985 247.683 350.235 248.558 349.685 249.675C349.135 250.792 348.86 252.042 348.86 253.425C348.86 255.025 349.126 256.492 349.66 257.825C350.193 259.158 351.001 260.225 352.085 261.025C353.185 261.825 354.543 262.225 356.16 262.225C356.843 262.225 357.418 262.208 357.885 262.175C358.351 262.125 358.901 261.992 359.535 261.775V256.025L355.635 254.975L356.21 253.85H365.31V254.75L362.96 256.625V259.95ZM376.535 264.025C375.818 264.175 374.952 264.25 373.935 264.25C372.818 264.25 371.81 263.967 370.91 263.4C370.027 262.817 369.327 262.033 368.81 261.05C368.31 260.067 368.06 258.975 368.06 257.775C368.06 256.475 368.452 255.267 369.235 254.15C370.035 253.017 371.035 252.117 372.235 251.45C373.435 250.767 374.593 250.425 375.71 250.425C377.327 250.425 378.577 251.058 379.46 252.325C380.36 253.592 380.802 255.283 380.785 257.4H371.585C371.702 258.733 372.085 259.825 372.735 260.675C373.385 261.508 374.268 261.925 375.385 261.925C376.485 261.925 378.052 261.142 380.085 259.575L380.835 260.6L376.535 264.025ZM374.285 252.7C372.568 252.7 371.668 253.883 371.585 256.25H377.21C377.06 255.4 376.902 254.742 376.735 254.275C376.585 253.808 376.318 253.433 375.935 253.15C375.552 252.85 374.993 252.7 374.26 252.7H374.285ZM391.247 264.05C390.83 264.183 390.322 264.25 389.722 264.25C388.288 264.25 387.238 263.892 386.572 263.175C385.922 262.442 385.597 261.317 385.597 259.8V252.575H382.897V251.5L387.772 245.9H388.847V251.425H393.347V252.575H388.847V260C388.847 261.317 389.497 261.975 390.797 261.975C391.147 261.975 391.48 261.908 391.797 261.775C392.113 261.625 392.522 261.367 393.022 261L393.772 262.05L391.247 264.05ZM410.301 253.25C409.951 253.25 409.585 253.342 409.201 253.525C408.818 253.708 408.385 254.042 407.901 254.525V261.85L411.451 262.9L410.901 264.025H402.426V263.125L404.651 261.35V254.55L402.426 253.225V252.325L406.876 250.2L407.701 253.225L410.226 250.625C410.61 250.492 411.06 250.425 411.576 250.425C412.193 250.425 412.726 250.583 413.176 250.9C413.643 251.217 413.993 251.667 414.226 252.25L412.426 254.5H411.351C411.285 254.05 411.168 253.733 411.001 253.55C410.835 253.35 410.601 253.25 410.301 253.25ZM428.666 264H423.716V261.825L420.891 264.05C420.557 264.183 420.141 264.25 419.641 264.25C418.174 264.25 417.116 263.892 416.466 263.175C415.816 262.442 415.491 261.558 415.491 260.525C415.491 259.925 415.699 259.333 416.116 258.75C416.532 258.15 417.141 257.583 417.941 257.05H423.716V255.7C423.716 253.75 422.674 252.775 420.591 252.775C419.541 252.775 418.224 253.367 416.641 254.55L415.891 253.5L419.466 250.675C420.232 250.508 421.066 250.425 421.966 250.425C423.549 250.425 424.774 250.808 425.641 251.575C426.524 252.342 426.966 253.45 426.966 254.9V262L429.216 262.875L428.666 264ZM420.541 261.875C421.524 261.875 422.582 261.433 423.716 260.55V258.2H419.366C419.166 258.45 419.024 258.7 418.941 258.95C418.857 259.2 418.816 259.475 418.816 259.775C418.816 260.358 418.974 260.858 419.291 261.275C419.607 261.675 420.024 261.875 420.541 261.875ZM446.763 264.025H441.838V255.675C441.838 254.792 441.696 254.175 441.413 253.825C441.13 253.458 440.638 253.275 439.938 253.275C439.421 253.275 438.905 253.367 438.388 253.55C437.871 253.733 437.271 254.083 436.588 254.6V262.075L438.838 262.9L438.263 264.025H431.113V263.125L433.338 261.35V254.55L431.113 253.225V252.325L435.563 250.2L436.438 253.375L439.888 250.625C440.271 250.492 440.738 250.425 441.288 250.425C442.455 250.425 443.38 250.775 444.063 251.475C444.746 252.158 445.088 253.092 445.088 254.275V262.05L447.338 262.9L446.763 264.025ZM464.479 264H459.554V262.2L457.204 264.05C456.671 264.183 456.038 264.25 455.304 264.25C454.204 264.25 453.213 263.967 452.329 263.4C451.463 262.817 450.779 262.033 450.279 261.05C449.796 260.067 449.554 258.975 449.554 257.775C449.554 256.475 449.946 255.267 450.729 254.15C451.529 253.017 452.529 252.117 453.729 251.45C454.929 250.767 456.088 250.425 457.204 250.425C458.054 250.425 458.838 250.675 459.554 251.175V246.3L457.329 244.75V243.85L461.729 242.175H462.804V262.05L465.054 262.875L464.479 264ZM456.654 261.875C457.154 261.875 457.629 261.808 458.079 261.675C458.529 261.542 459.029 261.292 459.579 260.925V255.4C459.479 254.6 459.096 253.95 458.429 253.45C457.779 252.95 456.888 252.7 455.754 252.7C453.954 252.7 453.054 253.992 453.054 256.575C453.054 258.092 453.363 259.358 453.979 260.375C454.596 261.375 455.479 261.875 456.629 261.875H456.654ZM474.953 250.425C476.087 250.425 477.095 250.717 477.978 251.3C478.878 251.867 479.578 252.642 480.078 253.625C480.578 254.608 480.828 255.7 480.828 256.9C480.828 258.2 480.428 259.417 479.628 260.55C478.845 261.667 477.853 262.567 476.653 263.25C475.453 263.917 474.295 264.25 473.178 264.25C472.062 264.25 471.053 263.967 470.153 263.4C469.27 262.817 468.57 262.033 468.053 261.05C467.553 260.067 467.303 258.975 467.303 257.775C467.303 256.475 467.695 255.267 468.478 254.15C469.278 253.017 470.278 252.117 471.478 251.45C472.678 250.767 473.837 250.425 474.953 250.425ZM473.503 252.7C471.703 252.7 470.803 253.992 470.803 256.575C470.803 258.125 471.128 259.417 471.778 260.45C472.445 261.483 473.395 262 474.628 262C475.512 262 476.178 261.667 476.628 261C477.078 260.333 477.303 259.358 477.303 258.075C477.303 256.542 476.97 255.267 476.303 254.25C475.653 253.217 474.72 252.7 473.503 252.7ZM507.423 264H502.473V255.6C502.473 254.733 502.331 254.125 502.048 253.775C501.781 253.425 501.306 253.25 500.623 253.25C500.139 253.25 499.656 253.342 499.173 253.525C498.689 253.708 498.131 254.058 497.498 254.575V262.05L499.723 262.875L499.173 264H494.248V255.6C494.248 254.733 494.106 254.125 493.823 253.775C493.556 253.425 493.081 253.25 492.398 253.25C491.914 253.25 491.431 253.342 490.948 253.525C490.464 253.708 489.914 254.058 489.298 254.575V262.075L491.498 262.9L490.948 264.025H483.823V263.125L486.048 261.35V254.55L483.823 253.225V252.325L488.273 250.2L489.123 253.35L492.373 250.625C492.756 250.492 493.214 250.425 493.748 250.425C494.714 250.425 495.514 250.683 496.148 251.2C496.798 251.7 497.214 252.4 497.398 253.3L500.598 250.625C500.981 250.492 501.439 250.425 501.973 250.425C503.123 250.425 504.031 250.775 504.698 251.475C505.381 252.158 505.723 253.092 505.723 254.275V262.05L507.973 262.875L507.423 264ZM354.685 314.425C355.601 314.425 356.435 314.717 357.185 315.3C357.935 315.867 358.518 316.65 358.935 317.65C359.351 318.633 359.56 319.717 359.56 320.9C359.56 322.2 359.16 323.417 358.36 324.55C357.576 325.667 356.585 326.567 355.385 327.25C354.185 327.917 353.026 328.25 351.91 328.25C351.226 328.25 350.585 328.108 349.985 327.825C349.401 327.525 348.885 327.108 348.435 326.575L347.335 328H346.26V310.3L344.035 308.75V307.85L348.435 306.175H349.51V317.2L352.735 314.625C353.268 314.492 353.91 314.425 354.66 314.425H354.685ZM353.36 326C354.26 326 354.935 325.675 355.385 325.025C355.835 324.358 356.06 323.383 356.06 322.1C356.06 320.6 355.818 319.342 355.335 318.325C354.868 317.292 354.201 316.775 353.335 316.775C352.718 316.775 352.118 316.892 351.535 317.125C350.968 317.342 350.301 317.775 349.535 318.425V322.875C349.535 323.758 349.86 324.5 350.51 325.1C351.176 325.7 352.126 326 353.36 326ZM370.559 314.425C371.692 314.425 372.7 314.717 373.584 315.3C374.484 315.867 375.184 316.642 375.684 317.625C376.184 318.608 376.434 319.7 376.434 320.9C376.434 322.2 376.034 323.417 375.234 324.55C374.45 325.667 373.459 326.567 372.259 327.25C371.059 327.917 369.9 328.25 368.784 328.25C367.667 328.25 366.659 327.967 365.759 327.4C364.875 326.817 364.175 326.033 363.659 325.05C363.159 324.067 362.909 322.975 362.909 321.775C362.909 320.475 363.3 319.267 364.084 318.15C364.884 317.017 365.884 316.117 367.084 315.45C368.284 314.767 369.442 314.425 370.559 314.425ZM369.109 316.7C367.309 316.7 366.409 317.992 366.409 320.575C366.409 322.125 366.734 323.417 367.384 324.45C368.05 325.483 369 326 370.234 326C371.117 326 371.784 325.667 372.234 325C372.684 324.333 372.909 323.358 372.909 322.075C372.909 320.542 372.575 319.267 371.909 318.25C371.259 317.217 370.325 316.7 369.109 316.7ZM386.803 328.05C386.387 328.183 385.878 328.25 385.278 328.25C383.845 328.25 382.795 327.892 382.128 327.175C381.478 326.442 381.153 325.317 381.153 323.8V316.575H378.453V315.5L383.328 309.9H384.403V315.425H388.903V316.575H384.403V324C384.403 325.317 385.053 325.975 386.353 325.975C386.703 325.975 387.037 325.908 387.353 325.775C387.67 325.625 388.078 325.367 388.578 325L389.328 326.05L386.803 328.05ZM398.376 328.05C397.959 328.183 397.451 328.25 396.851 328.25C395.417 328.25 394.367 327.892 393.701 327.175C393.051 326.442 392.726 325.317 392.726 323.8V316.575H390.026V315.5L394.901 309.9H395.976V315.425H400.476V316.575H395.976V324C395.976 325.317 396.626 325.975 397.926 325.975C398.276 325.975 398.609 325.908 398.926 325.775C399.242 325.625 399.651 325.367 400.151 325L400.901 326.05L398.376 328.05ZM409.223 328.025H402.073V327.125L404.298 325.35V310.3L402.073 308.75V307.85L406.473 306.175H407.548V326.05L409.798 326.9L409.223 328.025ZM420.749 328.025C420.032 328.175 419.166 328.25 418.149 328.25C417.032 328.25 416.024 327.967 415.124 327.4C414.241 326.817 413.541 326.033 413.024 325.05C412.524 324.067 412.274 322.975 412.274 321.775C412.274 320.475 412.666 319.267 413.449 318.15C414.249 317.017 415.249 316.117 416.449 315.45C417.649 314.767 418.807 314.425 419.924 314.425C421.541 314.425 422.791 315.058 423.674 316.325C424.574 317.592 425.016 319.283 424.999 321.4H415.799C415.916 322.733 416.299 323.825 416.949 324.675C417.599 325.508 418.482 325.925 419.599 325.925C420.699 325.925 422.266 325.142 424.299 323.575L425.049 324.6L420.749 328.025ZM418.499 316.7C416.782 316.7 415.882 317.883 415.799 320.25H421.424C421.274 319.4 421.116 318.742 420.949 318.275C420.799 317.808 420.532 317.433 420.149 317.15C419.766 316.85 419.207 316.7 418.474 316.7H418.499Z" fill="#533B3B"/>
<g filter="url(#filter0_d_6_84)">
<path d="M32.4666 396.5C8.36688 407.3 19.1763 430 32.4666 436.5C45.7569 443 43.0989 470.197 23.6064 474.697C4.11398 479.197 -0.31612 491.697 12.0882 495.197C22.0116 497.997 11.4975 504.031 5 506.697H638.947V30.1973C636.289 26.5306 627.13 9.19735 605.722 9.19727C570.281 9.19712 613.667 58.0001 579.141 58.0001C556.99 58.0001 559.177 19.3195 527.309 39C503.829 53.5 525.98 80.5001 484.78 80.5001C460.066 80.5001 459.971 125 433.391 143.5C402.012 165.34 313.335 121.192 313.335 157.5C313.335 204 296.717 199.134 270.363 186C236.251 169 258.283 218.142 206.127 244.5C176.445 259.5 237.137 295.5 193.279 312.5C158.769 325.877 154.154 299.804 137.903 306.5C109.993 318 111.322 342.5 83.8558 338C77.5803 336.972 37.0225 339.564 49.301 363.5C59.0472 382.5 43.5419 391.537 32.4666 396.5Z" fill="url(#paint0_linear_6_84)"/>
<path d="M32.4666 396.5C8.36688 407.3 19.1763 430 32.4666 436.5C45.7569 443 43.0989 470.197 23.6064 474.697C4.11398 479.197 -0.31612 491.697 12.0882 495.197C22.0116 497.997 11.4975 504.031 5 506.697H638.947V30.1973C636.289 26.5306 627.13 9.19735 605.722 9.19727C570.281 9.19712 613.667 58.0001 579.141 58.0001C556.99 58.0001 559.177 19.3195 527.309 39C503.829 53.5 525.98 80.5001 484.78 80.5001C460.066 80.5001 459.971 125 433.391 143.5C402.012 165.34 313.335 121.192 313.335 157.5C313.335 204 296.717 199.134 270.363 186C236.251 169 258.283 218.142 206.127 244.5C176.445 259.5 237.137 295.5 193.279 312.5C158.769 325.877 154.154 299.804 137.903 306.5C109.993 318 111.322 342.5 83.8558 338C77.5803 336.972 37.0225 339.564 49.301 363.5C59.0472 382.5 43.5419 391.537 32.4666 396.5Z" stroke="white" stroke-width="2"/>
</g>
<path d="M32.4666 396.5C8.36688 407.3 19.1763 430 32.4666 436.5C45.7569 443 43.0989 470.197 23.6064 474.697C4.11398 479.197 -0.31612 491.697 12.0882 495.197C22.0116 497.997 11.4975 504.031 5 506.697H42.6559C57.4566 496.089 69.3955 461.967 65.6924 448.5C57.7182 419.5 94.931 398.44 83.8558 376.5C72.7805 354.56 140.118 339.5 159.167 351.5C178.217 363.5 217.645 334.5 239.352 320.5C261.06 306.5 258.845 281.5 276.565 253C294.286 224.5 332.827 224.095 354.092 234.297C375.356 244.5 366.053 202 385.989 186C405.924 170 467.945 180 490.982 151.5C514.019 123 512.689 104.5 537.941 94.5C563.193 84.5 606.165 84.5 612.81 64C619.455 43.5 627.872 51.5 638.947 64C646.772 54.6924 638.947 30.1973 638.947 30.1973C636.289 26.5306 627.13 9.19735 605.722 9.19727C570.281 9.19712 613.667 58.0001 579.141 58.0001C556.99 58.0001 559.177 19.3195 527.309 39C503.829 53.5 525.98 80.5001 484.78 80.5001C460.066 80.5001 459.971 125 433.391 143.5C402.012 165.34 313.335 121.192 313.335 157.5C313.335 204 296.717 199.134 270.363 186C236.251 169 258.283 218.142 206.127 244.5C176.445 259.5 237.137 295.5 193.279 312.5C158.769 325.877 154.154 299.804 137.903 306.5C109.993 318 111.322 342.5 83.8558 338C77.5803 336.972 37.0225 339.564 49.301 363.5C59.0472 382.5 43.5419 391.537 32.4666 396.5Z" fill="white" stroke="white" stroke-width="2"/>
</g>
<defs>
<filter id="filter0_d_6_84" x="0.141907" y="0.197266" width="643.805" height="507.5" filterUnits="userSpaceOnUse" color-interpolation-filters="sRGB">
<feFlood flood-opacity="0" result="BackgroundImageFix"/>
<feColorMatrix in="SourceAlpha" type="matrix" values="0 0 0 0 0 0 0 0 0 0 0 0 0 0 0 0 0 0 127 0" result="hardAlpha"/>
<feOffset dy="-4"/>
<feGaussianBlur stdDeviation="2"/>
<feComposite in2="hardAlpha" operator="out"/>
<feColorMatrix type="matrix" values="0 0 0 0 0.38515 0 0 0 0 0.393129 0 0 0 0 0.863889 0 0 0 0.25 0"/>
<feBlend mode="normal" in2="BackgroundImageFix" result="effect1_dropShadow_6_84"/>
<feBlend mode="normal" in="SourceGraphic" in2="effect1_dropShadow_6_84" result="shape"/>
</filter>
<linearGradient id="paint0_linear_6_84" x1="361.623" y1="180.5" x2="674.371" y2="469.091" gradientUnits="userSpaceOnUse">
<stop stop-color="#D2F4F7"/>
<stop offset="0.451667" stop-color="#A6EEE2"/>
<stop offset="1" stop-color="#79BCF3"/>
</linearGradient>
</defs>
</svg>
