<svg width="23" height="23" viewBox="0 0 23 23" fill="none" xmlns="http://www.w3.org/2000/svg">
<g clip-path="url(#clip0_1_2)">
<rect width="23" height="23" rx="3" fill="white"/>
<path d="M17.5702 8.18453L17.3884 8.59615C17.3599 8.66317 17.312 8.72043 17.2506 8.7607C17.1892 8.80097 17.117 8.82246 17.0432 8.82246C16.9694 8.82246 16.8972 8.80097 16.8358 8.7607C16.7744 8.72043 16.7264 8.66317 16.698 8.59615L16.5162 8.18453C16.1965 7.45637 15.6111 6.87254 14.8753 6.54825L14.3144 6.30171C14.2463 6.27091 14.1886 6.22155 14.1482 6.15949C14.1078 6.09742 14.0863 6.02526 14.0863 5.95155C14.0863 5.87784 14.1078 5.80568 14.1482 5.74361C14.1886 5.68155 14.2463 5.63219 14.3144 5.60139L14.8443 5.3694C15.5985 5.03587 16.194 4.43045 16.5081 3.67784L16.6958 3.2335C16.7233 3.16467 16.7712 3.10558 16.8333 3.06393C16.8954 3.02228 16.9688 3 17.0439 3C17.1191 3 17.1925 3.02228 17.2546 3.06393C17.3167 3.10558 17.3646 3.16467 17.3921 3.2335L17.5791 3.67712C17.8928 4.42986 18.488 5.03555 19.2421 5.3694L19.7728 5.60211C19.8406 5.63301 19.8981 5.68236 19.9383 5.74434C19.9786 5.80633 20 5.87835 20 5.95191C20 6.02548 19.9786 6.0975 19.9383 6.15949C19.8981 6.22147 19.8406 6.27082 19.7728 6.30171L19.211 6.54752C18.4755 6.87213 17.8903 7.45622 17.5709 8.18453M8.91284 4.45526C10.3487 4.45504 11.7356 4.96891 12.8147 5.90096C13.8938 6.83301 14.5913 8.11955 14.777 9.52047L16.4401 12.0942C16.5495 12.2636 16.5273 12.516 16.2738 12.6236L14.8258 13.233V15.3638C14.8258 15.7496 14.6701 16.1195 14.3929 16.3923C14.1156 16.6651 13.7396 16.8183 13.3476 16.8183H11.8701L11.8693 19H5.21723V16.3136C5.21723 15.4554 4.89497 14.6431 4.29776 13.9101C3.60132 13.0545 3.16471 12.0227 3.03823 10.9337C2.91175 9.8446 3.10054 8.74252 3.58286 7.75442C4.06517 6.76631 4.82139 5.93237 5.76438 5.34868C6.70737 4.76499 7.79877 4.45529 8.91284 4.45526ZM8.91284 5.90973C8.07732 5.9097 7.25879 6.1419 6.55154 6.57959C5.84428 7.01728 5.27708 7.64265 4.91528 8.38366C4.55347 9.12466 4.41178 9.95116 4.50652 10.7679C4.60126 11.5847 4.92859 12.3586 5.45079 13.0003C6.25939 13.9922 6.69547 15.1216 6.69547 16.3136V17.5455H10.3911L10.3926 15.3638H13.3476V12.2745L14.4932 11.7916L13.3528 10.0281L13.3106 9.70664C13.1709 8.65638 12.6476 7.692 11.8384 6.99338C11.0292 6.29476 9.98938 5.9096 8.91284 5.90973ZM16.6662 15.3587L17.8961 16.166C18.7883 14.8524 19.2633 13.3075 19.2606 11.7276C19.2601 11.2307 19.2155 10.7459 19.1268 10.2732L17.6907 10.6368C17.7513 10.9922 17.7818 11.3558 17.7823 11.7276C17.7845 13.0201 17.396 14.2841 16.6662 15.3587Z" fill="black"/>
</g>
<defs>
<clipPath id="clip0_1_2">
<rect width="23" height="23" fill="white"/>
</clipPath>
</defs>
</svg>
