<svg width="23" height="23" viewBox="0 0 23 23" fill="none" xmlns="http://www.w3.org/2000/svg">
<g clip-path="url(#clip0_1_2)">
<rect width="23" height="23" rx="3" fill="#FDF7EB"/>
<path d="M16.7751 3.68481L16.5562 3.91308L16.3518 4.12475L18.758 6.53099L18.9727 6.32031L19.1958 6.10137L18.9738 5.88037L16.9992 3.90791L16.775 3.68478L16.7751 3.68481ZM15.3661 4.01684L14.2715 5.11049L17.7048 8.54392L18.7985 7.44922L15.3661 4.01684ZM10.2788 5.95093C10.2406 5.95093 10.2028 5.95136 10.1646 5.95192C8.49239 5.97908 6.82991 6.63026 5.55352 7.90576C2.94226 10.516 2.94275 14.7475 5.55451 17.3583C8.16644 19.9691 12.4008 19.9697 15.0123 17.3583C17.2213 15.1503 17.559 11.7871 16.0281 9.21831L16.771 8.48785L16.3321 8.04897L15.4201 8.94545L15.2395 9.12289L15.3775 9.33559C16.3618 10.8508 16.6016 12.7037 16.0956 14.3825C15.5389 14.3432 15.0466 13.8917 14.8961 13.2536C14.7953 12.8253 14.8462 12.3635 15.0508 12.0199C13.7385 12.5608 13.3426 13.5287 13.6625 15.0019C12.4006 15.1794 12.5355 13.572 11.7325 13.0771C11.6745 14.4335 10.1022 15.3638 9.30769 14.4126C8.52576 13.4767 9.43785 12.1628 10.6026 12.4058C9.45273 11.4541 8.42117 11.5414 7.36425 12.5594C7.52927 11.6132 7.88932 11.0003 8.54605 10.6575C6.40056 10.8138 4.86203 12.2854 4.37381 14.0234C3.90757 12.049 4.44626 9.88922 5.99147 8.34471C6.87188 7.46482 7.95277 6.91146 9.08553 6.68455C9.03115 6.75228 8.99223 6.82815 8.97038 6.90967C8.79716 7.55623 9.77569 8.37957 11.1556 8.74932C12.5355 9.11907 13.7942 8.89475 13.9675 8.24815C14.019 8.05574 13.9673 7.84732 13.8347 7.64014L13.9737 7.4959L14.8588 6.57551L14.4188 6.13557L13.6946 6.88895C12.6443 6.26499 11.4611 5.95189 10.2788 5.95096L10.2788 5.95093ZM11.2676 9.94045C10.6105 9.95074 9.82928 10.3004 9.06578 11.086C10.7816 10.5642 12.1729 10.7331 12.8209 12.4878C13.1828 10.9748 12.4472 9.96037 11.3309 9.94045C11.3098 9.94012 11.2887 9.94012 11.2676 9.94045H11.2676Z" fill="#EA6A63"/>
</g>
<defs>
<clipPath id="clip0_1_2">
<rect width="23" height="23" fill="white"/>
</clipPath>
</defs>
</svg>
